<svg width="20" height="20" fill="none" xmlns="http://www.w3.org/2000/svg"><path d="M9 15h2v-4h4V9h-4V5H9v4H5v2h4v4Zm1 5a9.873 9.873 0 0 1-3.9-.775 10.274 10.274 0 0 1-3.175-2.15c-.9-.9-1.617-1.958-2.15-3.175A9.873 9.873 0 0 1 0 10c0-1.383.258-2.683.775-3.9a10.275 10.275 0 0 1 2.15-3.175c.9-.9 1.958-1.608 3.175-2.125A9.607 9.607 0 0 1 10 0c1.383 0 2.683.267 3.9.8a9.927 9.927 0 0 1 3.175 2.125c.9.9 1.608 1.958 2.125 3.175.533 1.217.8 2.517.8 3.9a9.607 9.607 0 0 1-.8 3.9 9.927 9.927 0 0 1-2.125 3.175c-.9.9-1.958 1.617-3.175 2.15A9.873 9.873 0 0 1 10 20Zm0-2c2.233 0 4.125-.775 5.675-2.325C17.225 14.125 18 12.233 18 10c0-2.233-.775-4.125-2.325-5.675C14.125 2.775 12.233 2 10 2c-2.233 0-4.125.775-5.675 2.325C2.775 5.875 2 7.767 2 10c0 2.233.775 4.125 2.325 5.675C5.875 17.225 7.767 18 10 18Z" fill="#EAF9FF"/></svg>