<svg width="16" height="12" fill="none" xmlns="http://www.w3.org/2000/svg"><path d="M2 12c-.413 0-.766-.147-1.06-.44A1.445 1.445 0 0 1 .5 10.5v-9C.5 1.087.647.734.94.44 1.235.148 1.588 0 2 0h12c.412 0 .766.147 1.06.44.293.294.44.647.44 1.06v9c0 .412-.147.766-.44 1.06-.294.293-.648.44-1.06.44H2Zm6-5.25L2 3v7.5h12V3L8 6.75Zm0-1.5 6-3.75H2l6 3.75ZM2 3V1.5v9V3Z" fill="url(#a)"/><defs><radialGradient id="a" cx="0" cy="0" r="1" gradientUnits="userSpaceOnUse" gradientTransform="matrix(0 6 -7.5 0 8 6)"><stop stop-color="#04050D"/><stop offset="1" stop-color="#090D1A"/></radialGradient></defs></svg>